<mxfile host="app.diagrams.net" modified="2023-10-04T14:02:24.319Z" agent="Mozilla/5.0 (Windows NT 10.0; Win64; x64) AppleWebKit/537.36 (KHTML, like Gecko) Chrome/117.0.0.0 Safari/537.36" etag="vpYion3_03NdXe6QFNtg" version="22.0.2" type="device">
  <diagram id="GlGIL-_fi_g5rCMe3LIJ" name="Pàgina-1">
    <mxGraphModel dx="2973" dy="1021" grid="1" gridSize="10" guides="1" tooltips="1" connect="1" arrows="1" fold="1" page="1" pageScale="1" pageWidth="850" pageHeight="1100" math="0" shadow="0">
      <root>
        <mxCell id="0" />
        <mxCell id="1" parent="0" />
        <mxCell id="tPwclbUBUFTo_CAdLEhx-50" value="&lt;table style=&quot;border-spacing: 0px; border-collapse: collapse; display: block; width: max-content; max-width: 100%; overflow: auto; font-family: -apple-system, BlinkMacSystemFont, &amp;quot;Segoe UI&amp;quot;, &amp;quot;Noto Sans&amp;quot;, Helvetica, Arial, sans-serif, &amp;quot;Apple Color Emoji&amp;quot;, &amp;quot;Segoe UI Emoji&amp;quot;; font-size: 16px; text-align: start; margin-top: 0px !important; margin-bottom: 0px !important;&quot;&gt;&lt;tbody style=&quot;box-sizing: border-box;&quot;&gt;&lt;tr style=&quot;box-sizing: border-box; border-top: 1px solid var(--borderColor-muted, var(--color-border-muted));&quot;&gt;&lt;td style=&quot;box-sizing: border-box; padding: 6px 13px; border: 1px solid var(--borderColor-default, var(--color-border-default));&quot;&gt;авторизація&lt;/td&gt;&lt;/tr&gt;&lt;tr style=&quot;box-sizing: border-box; border-top: 1px solid var(--borderColor-muted, var(--color-border-muted));&quot;&gt;&lt;/tr&gt;&lt;/tbody&gt;&lt;/table&gt;" style="text;html=1;align=center;verticalAlign=middle;resizable=0;points=[];autosize=1;strokeColor=none;fillColor=none;fontColor=none;labelBackgroundColor=#000000;labelBorderColor=default;noLabel=1;" parent="1" vertex="1">
          <mxGeometry x="-120" y="160" width="140" height="40" as="geometry" />
        </mxCell>
        <mxCell id="tPwclbUBUFTo_CAdLEhx-63" value="" style="strokeWidth=1;shadow=0;dashed=0;align=center;html=1;shape=mxgraph.mockup.containers.browserWindow;rSize=0;strokeColor=#666666;strokeColor2=#008cff;strokeColor3=#c4c4c4;mainText=,;recursiveResize=0;" parent="1" vertex="1">
          <mxGeometry x="-650" y="290" width="470" height="370" as="geometry" />
        </mxCell>
        <mxCell id="tPwclbUBUFTo_CAdLEhx-64" value="Page 1" style="strokeWidth=1;shadow=0;dashed=0;align=center;html=1;shape=mxgraph.mockup.containers.anchor;fontSize=17;fontColor=#666666;align=left;whiteSpace=wrap;" parent="tPwclbUBUFTo_CAdLEhx-63" vertex="1">
          <mxGeometry x="60" y="12" width="110" height="26" as="geometry" />
        </mxCell>
        <mxCell id="tPwclbUBUFTo_CAdLEhx-65" value="&lt;font style=&quot;vertical-align: inherit;&quot;&gt;&lt;font style=&quot;vertical-align: inherit;&quot;&gt;https://myhealth.com&lt;/font&gt;&lt;/font&gt;" style="strokeWidth=1;shadow=0;dashed=0;align=center;html=1;shape=mxgraph.mockup.containers.anchor;rSize=0;fontSize=17;fontColor=#666666;align=left;" parent="tPwclbUBUFTo_CAdLEhx-63" vertex="1">
          <mxGeometry x="130" y="60" width="250" height="26" as="geometry" />
        </mxCell>
        <mxCell id="tPwclbUBUFTo_CAdLEhx-77" value="поставити запитання чи проблему" style="strokeWidth=1;shadow=0;dashed=0;align=center;html=1;shape=mxgraph.mockup.buttons.button;strokeColor=#666666;fontColor=#ffffff;mainText=;buttonStyle=round;fontSize=17;fontStyle=1;fillColor=#008cff;whiteSpace=wrap;" parent="tPwclbUBUFTo_CAdLEhx-63" vertex="1">
          <mxGeometry x="80" y="320" width="317.5" height="30" as="geometry" />
        </mxCell>
        <mxCell id="tPwclbUBUFTo_CAdLEhx-76" value="" style="strokeWidth=1;shadow=0;dashed=0;align=center;html=1;shape=mxgraph.mockup.forms.rrect;fillColor=#ffffff;rSize=0;fontColor=#666666;align=left;spacingLeft=3;strokeColor=#999999;verticalAlign=top;whiteSpace=wrap;" parent="tPwclbUBUFTo_CAdLEhx-63" vertex="1">
          <mxGeometry x="27.5" y="210" width="415" height="100" as="geometry" />
        </mxCell>
        <mxCell id="tPwclbUBUFTo_CAdLEhx-78" value="" style="verticalLabelPosition=bottom;shadow=0;dashed=0;align=center;html=1;verticalAlign=top;strokeWidth=1;shape=mxgraph.mockup.containers.userMale;strokeColor=#666666;strokeColor2=#008cff;" parent="tPwclbUBUFTo_CAdLEhx-63" vertex="1">
          <mxGeometry x="27.5" y="120" width="85" height="80" as="geometry" />
        </mxCell>
        <mxCell id="tPwclbUBUFTo_CAdLEhx-81" value="" style="strokeWidth=1;shadow=0;dashed=0;align=center;html=1;shape=mxgraph.mockup.containers.browserWindow;rSize=0;strokeColor=#666666;strokeColor2=#008cff;strokeColor3=#c4c4c4;mainText=,;recursiveResize=0;" parent="1" vertex="1">
          <mxGeometry x="-140" y="290" width="530" height="370" as="geometry" />
        </mxCell>
        <mxCell id="tPwclbUBUFTo_CAdLEhx-82" value="Page 1" style="strokeWidth=1;shadow=0;dashed=0;align=center;html=1;shape=mxgraph.mockup.containers.anchor;fontSize=17;fontColor=#666666;align=left;whiteSpace=wrap;" parent="tPwclbUBUFTo_CAdLEhx-81" vertex="1">
          <mxGeometry x="60" y="12" width="110" height="26" as="geometry" />
        </mxCell>
        <mxCell id="tPwclbUBUFTo_CAdLEhx-83" value="&lt;font style=&quot;vertical-align: inherit;&quot;&gt;&lt;font style=&quot;vertical-align: inherit;&quot;&gt;https://myhealth.com&lt;/font&gt;&lt;/font&gt;" style="strokeWidth=1;shadow=0;dashed=0;align=center;html=1;shape=mxgraph.mockup.containers.anchor;rSize=0;fontSize=17;fontColor=#666666;align=left;" parent="tPwclbUBUFTo_CAdLEhx-81" vertex="1">
          <mxGeometry x="130" y="60" width="250" height="26" as="geometry" />
        </mxCell>
        <mxCell id="tPwclbUBUFTo_CAdLEhx-90" value="" style="verticalLabelPosition=bottom;shadow=0;dashed=0;align=center;html=1;verticalAlign=top;strokeWidth=1;shape=mxgraph.mockup.misc.loading_circle_1;pointerEvents=1" parent="tPwclbUBUFTo_CAdLEhx-81" vertex="1">
          <mxGeometry x="220" y="220" width="60" height="60" as="geometry" />
        </mxCell>
        <mxCell id="tPwclbUBUFTo_CAdLEhx-91" value="&lt;font style=&quot;font-size: 19px;&quot;&gt;на стадії аналізу незабаром ми надішлемо звіт&lt;/font&gt;" style="text;html=1;align=center;verticalAlign=middle;resizable=0;points=[];autosize=1;strokeColor=none;fillColor=none;" parent="tPwclbUBUFTo_CAdLEhx-81" vertex="1">
          <mxGeometry x="35" y="160" width="440" height="40" as="geometry" />
        </mxCell>
        <mxCell id="tPwclbUBUFTo_CAdLEhx-93" value="" style="endArrow=classic;html=1;rounded=0;exitX=0.998;exitY=0.55;exitDx=0;exitDy=0;exitPerimeter=0;entryX=-0.01;entryY=0.547;entryDx=0;entryDy=0;entryPerimeter=0;" parent="1" source="tPwclbUBUFTo_CAdLEhx-77" target="tPwclbUBUFTo_CAdLEhx-81" edge="1">
          <mxGeometry width="50" height="50" relative="1" as="geometry">
            <mxPoint x="-190" y="530" as="sourcePoint" />
            <mxPoint x="-140" y="480" as="targetPoint" />
          </mxGeometry>
        </mxCell>
        <mxCell id="tPwclbUBUFTo_CAdLEhx-96" value="" style="endArrow=classic;html=1;rounded=0;exitX=1;exitY=0.568;exitDx=0;exitDy=0;exitPerimeter=0;entryX=-0.01;entryY=0.57;entryDx=0;entryDy=0;entryPerimeter=0;" parent="1" source="tPwclbUBUFTo_CAdLEhx-81" edge="1" target="tPwclbUBUFTo_CAdLEhx-97">
          <mxGeometry width="50" height="50" relative="1" as="geometry">
            <mxPoint x="-190" y="830" as="sourcePoint" />
            <mxPoint x="430" y="690" as="targetPoint" />
          </mxGeometry>
        </mxCell>
        <mxCell id="tPwclbUBUFTo_CAdLEhx-97" value="" style="strokeWidth=1;shadow=0;dashed=0;align=center;html=1;shape=mxgraph.mockup.containers.browserWindow;rSize=0;strokeColor=#666666;strokeColor2=#008cff;strokeColor3=#c4c4c4;mainText=,;recursiveResize=0;" parent="1" vertex="1">
          <mxGeometry x="480" y="290" width="520" height="370" as="geometry" />
        </mxCell>
        <mxCell id="tPwclbUBUFTo_CAdLEhx-98" value="Page 1" style="strokeWidth=1;shadow=0;dashed=0;align=center;html=1;shape=mxgraph.mockup.containers.anchor;fontSize=17;fontColor=#666666;align=left;whiteSpace=wrap;" parent="tPwclbUBUFTo_CAdLEhx-97" vertex="1">
          <mxGeometry x="60" y="12" width="110" height="26" as="geometry" />
        </mxCell>
        <mxCell id="tPwclbUBUFTo_CAdLEhx-99" value="&lt;font style=&quot;vertical-align: inherit;&quot;&gt;&lt;font style=&quot;vertical-align: inherit;&quot;&gt;https://myhealth.com&lt;/font&gt;&lt;/font&gt;" style="strokeWidth=1;shadow=0;dashed=0;align=center;html=1;shape=mxgraph.mockup.containers.anchor;rSize=0;fontSize=17;fontColor=#666666;align=left;" parent="tPwclbUBUFTo_CAdLEhx-97" vertex="1">
          <mxGeometry x="130" y="60" width="250" height="26" as="geometry" />
        </mxCell>
        <mxCell id="tPwclbUBUFTo_CAdLEhx-101" value="&lt;font style=&quot;font-size: 18px;&quot;&gt;ваш звіт про стан здоров&#39;я доступний зараз&lt;/font&gt;" style="text;html=1;align=center;verticalAlign=middle;resizable=0;points=[];autosize=1;strokeColor=none;fillColor=none;" parent="tPwclbUBUFTo_CAdLEhx-97" vertex="1">
          <mxGeometry x="60" y="165" width="390" height="40" as="geometry" />
        </mxCell>
        <mxCell id="tPwclbUBUFTo_CAdLEhx-102" value="завантажити" style="strokeWidth=1;shadow=0;dashed=0;align=center;html=1;shape=mxgraph.mockup.buttons.button;strokeColor=#666666;fontColor=#ffffff;mainText=;buttonStyle=round;fontSize=17;fontStyle=1;fillColor=#008cff;whiteSpace=wrap;" parent="tPwclbUBUFTo_CAdLEhx-97" vertex="1">
          <mxGeometry x="200" y="250" width="130" height="40" as="geometry" />
        </mxCell>
      </root>
    </mxGraphModel>
  </diagram>
</mxfile>
